<?xml version="1.0" standalone="no"?>
<!DOCTYPE svg PUBLIC "-//W3C//DTD SVG 20010904//EN"
 "http://www.w3.org/TR/2001/REC-SVG-20010904/DTD/svg10.dtd">
<svg version="1.0" xmlns="http://www.w3.org/2000/svg"
 width="612.000000pt" height="612.000000pt" viewBox="0 0 612.000000 612.000000"
 preserveAspectRatio="xMidYMid meet">

<g transform="translate(0.000000,612.000000) scale(0.100000,-0.100000)"
fill="#000000" stroke="none">
<path d="M2930 4514 c-239 -92 -803 -343 -1298 -577 l-222 -106 -94 112 c-257
308 -483 483 -639 494 -177 13 -267 -145 -267 -467 0 -325 46 -698 105 -856
61 -163 136 -232 420 -384 210 -112 362 -218 495 -344 359 -340 854 -627 1291
-750 68 -19 172 -44 230 -55 99 -19 113 -19 187 -6 545 96 1119 400 1582 840
111 105 241 192 508 339 188 104 264 162 317 242 102 154 157 478 159 934 1
296 -30 408 -135 477 -37 24 -53 28 -113 28 -85 0 -159 -32 -271 -114 -113
-83 -374 -351 -456 -469 l-16 -22 -204 96 c-459 216 -769 357 -1056 479 -171
73 -386 156 -400 154 -5 0 -60 -21 -123 -45z m275 -139 c247 -96 687 -294
1347 -605 l138 -65 0 -576 0 -576 -87 -79 c-418 -378 -850 -621 -1312 -740
-194 -50 -224 -51 -377 -19 -481 101 -990 380 -1421 779 l-63 58 0 578 0 578
38 15 c20 9 143 66 272 127 129 62 278 131 330 155 52 24 156 71 230 105 420
192 744 323 775 313 11 -3 70 -25 130 -48z m-2477 -73 c26 -10 77 -38 113 -62
73 -49 303 -277 397 -392 l63 -77 -1 -552 c0 -304 -2 -554 -4 -556 -2 -2 -46
23 -97 55 -52 33 -155 92 -229 132 -160 87 -208 118 -256 168 -109 112 -156
332 -180 852 -8 172 6 301 41 378 34 73 69 86 153 54z m4771 3 c73 -37 100
-204 82 -509 -28 -495 -71 -676 -188 -787 -55 -54 -82 -71 -253 -164 -69 -37
-167 -94 -218 -126 -51 -33 -97 -59 -103 -59 -6 0 -9 204 -9 549 l1 550 66 83
c92 115 325 346 402 398 66 44 141 79 174 80 10 0 31 -7 46 -15z"/>
<path d="M2770 3890 c-467 -228 -515 -253 -518 -276 -2 -11 6 -28 18 -39 25
-23 0 -33 437 179 187 91 346 166 352 166 7 0 181 -82 388 -182 388 -187 390
-188 417 -145 8 12 8 22 0 35 -14 22 -771 391 -804 391 -14 0 -144 -58 -290
-129z"/>
<path d="M2545 3125 c-598 -197 -583 -191 -590 -215 -9 -27 12 -60 36 -60 12
0 254 77 538 170 285 94 524 170 531 170 7 0 245 -76 530 -170 284 -93 526
-170 538 -170 20 0 42 26 42 49 0 24 -43 44 -232 106 -112 36 -353 115 -536
176 -183 60 -338 109 -345 109 -6 -1 -237 -75 -512 -165z"/>
<path d="M1960 2545 c-16 -19 -5 -62 18 -69 9 -3 242 -21 517 -41 275 -19 514
-37 530 -39 17 -2 80 0 140 5 61 5 299 22 530 39 231 16 430 32 442 35 27 6
38 37 23 65 -14 26 7 27 -593 -16 l-509 -36 -501 36 c-570 41 -580 42 -597 21z"/>
</g>
</svg>
